<?xml version="1.0" encoding="utf-8"?>
<!-- Generator: Adobe Illustrator 27.9.0, SVG Export Plug-In . SVG Version: 6.00 Build 0)  -->
<svg version="1.1" id="bicycle" xmlns="http://www.w3.org/2000/svg" xmlns:xlink="http://www.w3.org/1999/xlink" x="0px" y="0px"
	 viewBox="0 0 64 62.9" style="enable-background:new 0 0 64 62.9;" xml:space="preserve">
<path d="M42.8,38.3c0.4-0.4,0.5-1,0.1-1.4c-0.4-0.4-1-0.5-1.4-0.1c-3.2,2.8-4.8,6.9-4.4,11.1c0.1,0.5,0.5,0.9,1,0.9h0.1
	c0.5-0.1,0.9-0.5,0.9-1.1C38.7,44.2,40.1,40.6,42.8,38.3z"/>
<path d="M20,23.6h3v2.8l-9.9,19.8c-0.2,0.3-0.1,0.7,0,1s0.6,0.4,0.9,0.4h8.6c0.6,0,1-0.4,1-1c0-0.6-0.4-1-1-1h-7L23.9,29l6.6,16.6
	h-1.3c-0.6,0-1,0.4-1,1c0,0.6,0.4,1,1,1H32c0.6,0,0.9-0.5,0.9-0.6l8.7-18l7.5,17.9c0.2,0.4,0.6,0.8,1.3,0.5c0.5-0.2,0.8-0.8,0.5-1.3
	l-9.4-22.5H48c0.6,0,1,0.4,1,1c0,0.6-0.4,1-1,1h-2c-0.6,0-1,0.4-1,1c0,0.6,0.4,1,1,1h2c1.7,0,3-1.3,3-3c0-1.7-1.3-3-3-3h-8
	c-1.4,0.2-0.9,1.3-0.9,1.4l1.1,2.6h-9.1c-0.6,0-1,0.4-1,1c0,0.6,0.4,1,1,1h9l-8,16.5l-6.6-16.5H28c0.6,0,1-0.4,1-1s-0.4-1-1-1h-3v-2
	h3c0.6,0,1-0.4,1-1c0-0.6-0.4-1-1-1h-8c-0.6,0-1,0.4-1,1C19,23.2,19.4,23.6,20,23.6z M9.5,38.8C6.7,40.4,5,43.4,5,46.6
	c0,0.6,0.4,1,1,1s1-0.4,1-1c0-2.5,1.3-4.8,3.5-6.1c0.5-0.3,0.6-0.9,0.4-1.4C10.6,38.7,10,38.5,9.5,38.8z M49,54.6c0,0.6,0.4,1,1,1
	c5,0,9-4,9-9c0-0.6-0.4-1-1-1s-1,0.4-1,1c0,3.9-3.1,7-7,7C49.4,53.6,49,54,49,54.6z"/>
<path d="M24,57.6h-3.1c3.7-2.3,6.1-6.4,6.1-11c0-3.7-1.6-7.3-4.4-9.8c-0.4-0.4-1-0.3-1.4,0.1c-0.4,0.4-0.3,1,0.1,1.4
	c2.4,2.1,3.7,5.1,3.7,8.3c0,6.1-4.9,11-11,11s-11-4.9-11-11s4.9-11,11-11c0.7,0,1.5,0.1,2.2,0.2c0.5,0.1,1.1-0.2,1.2-0.8
	c0.1-0.5-0.2-1.1-0.8-1.2c-0.8-0.1-1.7-0.2-2.6-0.2c-7.2,0-13,5.8-13,13c0,4.6,2.4,8.7,6.1,11H2c-0.6,0-1,0.4-1,1s0.4,1,1,1h22
	c0.6,0,1-0.4,1-1S24.6,57.6,24,57.6z M62,57.6h-5.1c1.2-0.7,2.3-1.7,3.2-2.8c2.2-2.7,3.2-6.1,2.9-9.5c-0.3-3.4-2-6.6-4.7-8.8
	c-2.7-2.2-6.1-3.2-9.5-2.9c-0.5,0.1-0.9,0.5-0.9,1.1c0.1,0.5,0.5,0.9,1.1,0.9c2.9-0.3,5.8,0.6,8.1,2.4c2.3,1.9,3.7,4.5,4,7.4
	c0.3,2.9-0.6,5.8-2.4,8.1c-1.9,2.3-4.5,3.7-7.4,4c-4.9,0.5-9.6-2.4-11.4-7c-0.2-0.5-0.8-0.8-1.3-0.6c-0.5,0.2-0.8,0.8-0.6,1.3
	c1,2.7,2.9,4.8,5.2,6.3H28c-0.6,0-1,0.4-1,1s0.4,1,1,1h34c0.6,0,1-0.4,1-1S62.6,57.6,62,57.6z"/>
</svg>
