<?xml version="1.0" encoding="utf-8"?>
<!-- Generator: Adobe Illustrator 27.9.0, SVG Export Plug-In . SVG Version: 6.00 Build 0)  -->
<svg version="1.1" id="bike-lane" xmlns="http://www.w3.org/2000/svg" xmlns:xlink="http://www.w3.org/1999/xlink" x="0px" y="0px"
	 viewBox="0 0 64 64" style="enable-background:new 0 0 64 64;" xml:space="preserve">
<style type="text/css">
	.st0{fill:#8B8891;}
	.st1{fill:#FDD331;}
	.st2{fill:#D4D8E0;}
	.st3{fill:#C2D3DC;}
	.st4{fill:#FFC239;}
</style>
<rect x="12" y="2" class="st0" width="40" height="60"/>
<path class="st1" d="M32,42L32,42c1.1,0,2,0.9,2,2v2c0,1.1-0.9,2-2,2h0c-1.1,0-2-0.9-2-2v-2C30,42.9,30.9,42,32,42z"/>
<path class="st1" d="M32,42L32,42c1.1,0,2,0.9,2,2v2c0,1.1-0.9,2-2,2h0c-1.1,0-2-0.9-2-2v-2C30,42.9,30.9,42,32,42z"/>
<path class="st2" d="M2,2h8c1.1,0,2,0.9,2,2v56c0,1.1-0.9,2-2,2H2l0,0V2L2,2z"/>
<path class="st2" d="M62,62h-8c-1.1,0-2-0.9-2-2V4c0-1.1,0.9-2,2-2h8l0,0V62L62,62z"/>
<path class="st3" d="M42,31c-0.5,0-1,0.1-1.5,0.2l-1.5-3.4c1.6-0.5,2.4-2.2,1.9-3.8C40.4,22.8,39.3,22,38,22h-2c-1.7,0-3,1.3-3,3
	c0,1.3,0.8,2.4,2,2.8l-2.8,5.7c-1.1-3.1-3.6-5.4-6.7-6.2l1.5-6.1c0.1-0.5-0.2-1.1-0.7-1.2c-0.1,0-0.2,0-0.2,0h-4c-1.7,0-3,1.3-3,3
	s1.3,3,3,3v-2c-0.6,0-1-0.4-1-1s0.4-1,1-1h2.7l-2.3,9c-0.2,0-0.3,0-0.5,0c-3.3,0-6,2.7-6,6c0,3.3,2.7,6,6,6s6-2.7,6-6
	c0-2.4-1.4-4.6-3.6-5.5l0.6-2.2c2.8,0.7,4.9,3,5.6,5.8c0.4,1.7,1.9,3,3.7,3h1.9c0.6,3.3,3.6,5.5,6.9,4.9c3.3-0.6,5.5-3.6,4.9-6.9
	C47.4,33.1,44.9,31,42,31z M26,37c0,2.2-1.8,4-4,4c-2.2,0-4-1.8-4-4c0-2.2,1.8-4,4-4L21,36.8l1.9,0.5l0.9-3.7
	C25.2,34.2,26,35.5,26,37z M36,24h2c0.6,0,1,0.4,1,1s-0.4,1-1,1h-2c-0.6,0-1-0.4-1-1S35.4,24,36,24z M33.3,35.7l3.6-7.4l1.7,3.7
	c-1.4,0.9-2.3,2.4-2.6,4h-1.9C33.9,36,33.6,35.9,33.3,35.7z M40.4,36h-2.3c0.2-0.8,0.7-1.6,1.4-2.1L40.4,36z M42,41
	c-1.8,0-3.4-1.2-3.9-3H42c0.6,0,1-0.4,1-1c0-0.1,0-0.3-0.1-0.4l-1.6-3.5c0.2,0,0.5-0.1,0.7-0.1c2.2,0,4,1.8,4,4S44.2,41,42,41z"/>
<path class="st1" d="M32,12L32,12c1.1,0,2,0.9,2,2v2c0,1.1-0.9,2-2,2h0c-1.1,0-2-0.9-2-2v-2C30,12.9,30.9,12,32,12z"/>
<path class="st4" d="M34,2v5c0,0.6-0.4,1-1,1h-2c-0.6,0-1-0.4-1-1V2H34z"/>
<path d="M42,31c-0.5,0-1,0.1-1.5,0.2l-1.5-3.4c1.6-0.5,2.4-2.2,1.9-3.8C40.4,22.8,39.3,22,38,22h-2c-1.7,0-3,1.3-3,3
	c0,1.3,0.8,2.4,2,2.8l-2.8,5.7c-1.1-3.1-3.6-5.4-6.7-6.2l1.5-6.1c0.1-0.5-0.2-1.1-0.7-1.2c-0.1,0-0.2,0-0.2,0h-4c-1.7,0-3,1.3-3,3
	s1.3,3,3,3v-2c-0.6,0-1-0.4-1-1s0.4-1,1-1h2.7l-2.3,9c-0.2,0-0.3,0-0.5,0c-3.3,0-6,2.7-6,6c0,3.3,2.7,6,6,6s6-2.7,6-6
	c0-2.4-1.4-4.6-3.6-5.5l0.6-2.2c2.8,0.7,4.9,3,5.6,5.8c0.4,1.7,1.9,3,3.7,3h1.9c0.6,3.3,3.6,5.5,6.9,4.9c3.3-0.6,5.5-3.6,4.9-6.9
	C47.4,33.1,44.9,31,42,31z M26,37c0,2.2-1.8,4-4,4c-2.2,0-4-1.8-4-4c0-2.2,1.8-4,4-4L21,36.8l1.9,0.5l0.9-3.7
	C25.2,34.2,26,35.5,26,37z M36,24h2c0.6,0,1,0.4,1,1s-0.4,1-1,1h-2c-0.6,0-1-0.4-1-1S35.4,24,36,24z M33.3,35.7l3.6-7.4l1.7,3.7
	c-1.4,0.9-2.3,2.4-2.6,4h-1.9C33.9,36,33.6,35.9,33.3,35.7z M40.4,36h-2.3c0.2-0.8,0.7-1.6,1.4-2.1L40.4,36z M42,41
	c-1.8,0-3.4-1.2-3.9-3H42c0.6,0,1-0.4,1-1c0-0.1,0-0.3-0.1-0.4l-1.6-3.5c0.2,0,0.5-0.1,0.7-0.1c2.2,0,4,1.8,4,4S44.2,41,42,41z"/>
<path class="st1" d="M32,2L32,2c1.1,0,2,0.9,2,2v2c0,1.1-0.9,2-2,2h0c-1.1,0-2-0.9-2-2V4C30,2.9,30.9,2,32,2z"/>
<path d="M62,1H2C1.4,1,1,1.4,1,2v60c0,0.6,0.4,1,1,1h60c0.6,0,1-0.4,1-1V2C63,1.4,62.6,1,62,1z M51.2,61H12.8c0.1-0.3,0.2-0.7,0.2-1
	V4c0-0.3-0.1-0.7-0.2-1H29v4c0,1.1,0.9,2,2,2h2c1.1,0,2-0.9,2-2V3h16.2C51.1,3.3,51,3.7,51,4v56C51,60.3,51.1,60.7,51.2,61z M31,3h2
	v4h-2V3z M3,61V3h7c0.6,0,1,0.4,1,1v56c0,0.6-0.4,1-1,1H3z M61,61h-7c-0.6,0-1-0.4-1-1V4c0-0.6,0.4-1,1-1h7V61z"/>
<path class="st1" d="M32,42L32,42c1.1,0,2,0.9,2,2v2c0,1.1-0.9,2-2,2h0c-1.1,0-2-0.9-2-2v-2C30,42.9,30.9,42,32,42z"/>
<path class="st1" d="M32,52L32,52c1.1,0,2,0.9,2,2v2c0,1.1-0.9,2-2,2h0c-1.1,0-2-0.9-2-2v-2C30,52.9,30.9,52,32,52z"/>
<path d="M33,51h-2c-1.1,0-2,0.9-2,2v4c0,1.1,0.9,2,2,2h2c1.1,0,2-0.9,2-2v-4C35,51.9,34.1,51,33,51z M33,41h-2c-1.1,0-2,0.9-2,2v4
	c0,1.1,0.9,2,2,2h2c1.1,0,2-0.9,2-2v-4C35,41.9,34.1,41,33,41z M31,47v-4h2v4H31z M31,57v-4h2v4H31z M31,19h2c1.1,0,2-0.9,2-2v-4
	c0-1.1-0.9-2-2-2h-2c-1.1,0-2,0.9-2,2v4C29,18.1,29.9,19,31,19z M31,13h2v4h-2V13z"/>
</svg>
