<?xml version="1.0" encoding="utf-8"?>
<!-- Generator: Adobe Illustrator 27.9.0, SVG Export Plug-In . SVG Version: 6.00 Build 0)  -->
<svg version="1.1" id="delivery-scooter" xmlns="http://www.w3.org/2000/svg" xmlns:xlink="http://www.w3.org/1999/xlink" x="0px"
	 y="0px" viewBox="0 0 64 54.9" style="enable-background:new 0 0 64 54.9;" xml:space="preserve">
<path d="M63,46L63,46L8,46c-0.6,0-1-0.4-1-1c0,0,0,0,0-0.1c0.3-5.4,2.8-10.3,7-13.7c0.4-0.3,1.1-0.3,1.4,0.2
	c0.3,0.4,0.3,1.1-0.1,1.4c-3.4,2.8-5.7,6.8-6.2,11.2l52.8,0c-0.4-3.5-2.8-6.5-6.1-7.5c-0.4-0.1-0.7-0.5-0.7-0.9
	c-0.2-6.5-1.9-13-5.1-18.7L49,18.3l1.7,14.6c0,0.3,0,0.5-0.2,0.7l-5.7,7C44.6,40.9,44.3,41,44,41H32c-0.5,0-0.9-0.4-1-0.9l-1-8
	c-0.1-0.5,0.3-1,0.9-1.1c0.5-0.1,1,0.3,1.1,0.9l0.9,7.1h10.6l5.1-6.3L47,18.1c0-0.2,0-0.5,0.2-0.7l2-3c0.2-0.3,0.5-0.4,0.9-0.4
	c0.3,0,0.7,0.2,0.8,0.5c3.8,6.1,5.9,13.1,6.2,20.3c4.2,1.6,7,5.7,6.9,10.2C64,45.6,63.5,46,63,46z"/>
<path d="M0,0"/>
<path d="M54,53c-4.4,0-8-3.6-8-8c0-0.6,0.4-1,1-1s1,0.4,1,1c0,3.3,2.7,6,6,6c3.3,0,6-2.7,6-6c0-0.6,0.4-1,1-1s1,0.4,1,1
	C62,49.4,58.4,53,54,53z M35,33H2c-1.1,0-2-0.9-2-2v-3c0-1.1,0.9-2,2-2h22c0-1.1,0.9-2,2-2h9c1.1,0,2,0.9,2,2v5
	C37,32.1,36.1,33,35,33z M2,28v3h33v-5h-9c0,1.1-0.9,2-2,2H2z M20,53c-4.4,0-8-3.6-8-8c0-0.6,0.4-1,1-1s1,0.4,1,1c0,3.3,2.7,6,6,6
	c3.3,0,6-2.7,6-6c0-0.6,0.4-1,1-1s1,0.4,1,1C28,49.4,24.4,53,20,53z"/>
<path d="M21,28c-0.6,0-1-0.4-1-1c0,0,0,0,0,0V13H5v14c0,0.6-0.4,1-1,1s-1-0.4-1-1V12c0-0.6,0.4-1,1-1c0,0,0,0,0,0h17
	c0.6,0,1,0.4,1,1c0,0,0,0,0,0v15C22,27.6,21.6,28,21,28C21,28,21,28,21,28z"/>
<path d="M15,20h-5c-0.6,0-1-0.4-1-1c0,0,0,0,0,0v-7c0-0.6,0.4-1,1-1s1,0.4,1,1v6h3v-6c0-0.6,0.4-1,1-1s1,0.4,1,1v7
	C16,19.6,15.6,20,15,20C15,20,15,20,15,20z M7,25c-0.6,0-1-0.4-1-1c0-0.6,0.4-1,1-1l4,0h0c0.6-0.3,1.2-0.1,1.5,0.5s0.1,1.2-0.5,1.5
	l-4,0H7z"/>
</svg>
