<?xml version="1.0" encoding="utf-8"?>
<!-- Generator: Adobe Illustrator 27.9.0, SVG Export Plug-In . SVG Version: 6.00 Build 0)  -->
<svg version="1.1" id="electric-bike" xmlns="http://www.w3.org/2000/svg" xmlns:xlink="http://www.w3.org/1999/xlink" x="0px"
	 y="0px" viewBox="0 0 64 64" style="enable-background:new 0 0 64 64;" xml:space="preserve">
<style type="text/css">
	.st0{fill-rule:evenodd;clip-rule:evenodd;fill:#FFFFFF;}
	.st1{fill-rule:evenodd;clip-rule:evenodd;fill:#D4D8E0;}
	.st2{fill:#FFFFFF;}
	.st3{fill:#D4D8E0;}
	.st4{fill-rule:evenodd;clip-rule:evenodd;fill:#FDD331;}
	.st5{fill-rule:evenodd;clip-rule:evenodd;fill:#FDD379;}
</style>
<g>
	<path class="st0" d="M16.5,35.6c5.4,0,9.8,4.4,9.8,9.8s-4.4,9.8-9.8,9.8s-9.8-4.4-9.8-9.8c0,0,0,0,0,0C6.7,40,11.1,35.6,16.5,35.6z
		"/>
	<path class="st1" d="M16.5,41.1c2.4,0,4.3,1.9,4.3,4.3c0,2.4-1.9,4.3-4.3,4.3s-4.3-1.9-4.3-4.3c0,0,0,0,0,0
		C12.2,43,14.1,41.1,16.5,41.1z"/>
	<circle class="st2" cx="52.2" cy="45.4" r="9.8"/>
	<circle class="st3" cx="52.2" cy="45.4" r="4.3"/>
	<polygon class="st4" points="2,23.5 3.9,14.8 12.6,14.8 10.7,23.5 13.8,23.5 3.3,32.1 5.1,23.5 	"/>
	<polygon class="st5" points="11.6,19 3,19 3.9,14.8 12.6,14.8 	"/>
	<path d="M52.2,34.6c-1.3,0-2.5,0.2-3.7,0.7l-6.4-13.4c-0.2-0.3-0.5-0.6-0.9-0.6h-3.5c-0.6,0-1,0.4-1,1s0.4,1,1,1h2.8l2.6,5.5H25.9
		l-2.5-4.4h4c0.6,0,1-0.4,1-1s-0.4-1-1-1h-5.7c-0.4,0-0.7,0.2-0.9,0.5c-0.2,0.3-0.2,0.7,0,1l3.3,5.7c-1,1.8-2.1,3.9-3.2,5.9
		c-1.4-0.6-2.9-0.9-4.4-0.9c-6,0-10.8,4.8-10.8,10.8s4.8,10.8,10.8,10.8c5.6,0,10.3-4.3,10.8-9.8h7.1l0,0c0.3,0,0.6-0.2,0.8-0.4
		l9.5-14.2l2.1,4.4c-5.1,3.1-6.8,9.7-3.7,14.8s9.7,6.8,14.8,3.7s6.8-9.7,3.7-14.8C59.6,36.5,56,34.5,52.2,34.6L52.2,34.6z
		 M25.2,44.3h-3.5c-1.6,0-2.7,0-3.5,0l0.5-0.9l2.9-5.2C23.6,39.7,24.9,41.9,25.2,44.3L25.2,44.3z M16.5,54.2C11.6,54,7.8,50,8,45.1
		c0.2-4.6,3.9-8.4,8.5-8.5c1.2,0,2.3,0.2,3.4,0.7c-2.1,3.8-3.9,7-4.2,7.5c-0.3,0.4-0.2,1.1,0.2,1.4c0.1,0.1,0.3,0.2,0.4,0.2
		c0.1,0,0.2,0,0.3,0c0.1,0,0.1,0,0.2,0c1,0,4.4,0,8.4,0C24.8,50.8,21,54.2,16.5,54.2L16.5,54.2z M27.3,44.3c-0.3-3.2-2-6-4.6-7.9
		c1-1.9,2-3.7,2.7-4.8l7.4,12.7L27.3,44.3z M34.5,43.5l-7.4-12.7h15.8L34.5,43.5z M52.3,54.2c-4.9,0-8.8-3.9-8.8-8.8
		c0-3,1.6-5.9,4.1-7.5l3.8,7.9c0.2,0.3,0.5,0.6,0.9,0.6c0.1,0,0.3,0,0.4-0.1c0.5-0.2,0.7-0.8,0.5-1.3l-3.8-7.9
		c0.9-0.3,1.9-0.5,2.8-0.5c4.9-0.2,8.9,3.6,9.1,8.5s-3.6,8.9-8.5,9.1C52.6,54.2,52.4,54.2,52.3,54.2L52.3,54.2z"/>
	<path d="M11.1,45.4c0-0.6-0.4-1-1-1s-1,0.4-1,1c0,2,0.8,3.9,2.3,5.3c0.4,0.4,1,0.4,1.4,0c0.4-0.4,0.4-1,0-1.4
		C11.7,48.3,11.1,46.9,11.1,45.4z M13.3,14.2c-0.2-0.2-0.5-0.4-0.8-0.4H3.9c-0.5,0-0.9,0.3-1,0.8l-1.8,8.6c-0.1,0.3,0,0.6,0.2,0.8
		c0.2,0.2,0.5,0.4,0.8,0.4h1.8l-1.6,7.4c-0.1,0.5,0.2,1.1,0.8,1.2c0.1,0,0.2,0,0.2,0c0.2,0,0.5-0.1,0.6-0.2l10.5-8.7
		c0.3-0.3,0.5-0.7,0.3-1.1c-0.2-0.4-0.6-0.7-1-0.7h-1.8l1.6-7.5C13.6,14.7,13.5,14.4,13.3,14.2z M9.9,24.1c0.2,0.2,0.5,0.4,0.8,0.4
		H11l-6.1,5.1l1.2-5.9c0.1-0.5-0.2-1.1-0.8-1.2c-0.1,0-0.2,0-0.2,0H3.3l1.4-6.6h6.6l-1.6,7.4C9.7,23.5,9.7,23.9,9.9,24.1z"/>
</g>
</svg>
