<?xml version="1.0" encoding="utf-8"?>
<!-- Generator: Adobe Illustrator 27.9.0, SVG Export Plug-In . SVG Version: 6.00 Build 0)  -->
<svg version="1.1" id="registration" xmlns="http://www.w3.org/2000/svg" xmlns:xlink="http://www.w3.org/1999/xlink" x="0px"
	 y="0px" viewBox="0 0 32 32" style="enable-background:new 0 0 32 32;" xml:space="preserve">
<style type="text/css">
	.st0{fill:#FFFFFF;}
	.st1{fill:#8B8891;}
	.st2{fill:#FDD331;}
	.st3{fill:#DAD9DB;}
</style>
<path class="st0" d="M23.7,22.7v6.8c0,1.1-0.9,2-2,2h-19c-1.1,0-2-0.9-2-2v-27c0-1.1,0.9-2,2-2h14l7,7V22.7z"/>
<path class="st1" d="M16.7,3.5h-12c-0.6,0-1,0.4-1,1v2c0,0.6,0.4,1,1,1h14L16.7,3.5z"/>
<path class="st2" d="M31.3,14.4c0,0.4-0.2,0.8-0.4,1.1l-11,11l-2.1-2.1l11-11c0.6-0.6,1.5-0.6,2.1,0C31.2,13.6,31.3,14,31.3,14.4z"
	/>
<polygon class="st1" points="17.1,27.8 16.4,27.1 17.8,24.3 19.9,26.4 "/>
<path class="st3" d="M4.7,10.5L4.7,10.5c0.6,0,1,0.4,1,1l0,0c0,0.6-0.4,1-1,1l0,0c-0.6,0-1-0.4-1-1l0,0C3.7,10.9,4.1,10.5,4.7,10.5z
	 M4.7,15.5L4.7,15.5c0.6,0,1,0.4,1,1l0,0c0,0.6-0.4,1-1,1l0,0c-0.6,0-1-0.4-1-1l0,0C3.7,15.9,4.1,15.5,4.7,15.5z M4.7,20.5L4.7,20.5
	c0.6,0,1,0.4,1,1l0,0c0,0.6-0.4,1-1,1l0,0c-0.6,0-1-0.4-1-1l0,0C3.7,20.9,4.1,20.5,4.7,20.5z M23.7,7.5h-5c-1.1,0-2-0.9-2-2v-5
	L23.7,7.5z"/>
<path class="st1" d="M31.3,14.4c0,0.4-0.2,0.8-0.4,1.1l-1,1l-2.1-2.1l1-1c0.6-0.6,1.5-0.6,2.1,0C31.2,13.6,31.3,14,31.3,14.4z"/>
<path d="M8.7,13h12c0.3,0,0.5-0.2,0.5-0.5S21,12,20.7,12h-12c-0.3,0-0.5,0.2-0.5,0.5S8.4,13,8.7,13z M8.7,16h12
	c0.3,0,0.5-0.2,0.5-0.5S21,15,20.7,15h-12c-0.3,0-0.5,0.2-0.5,0.5S8.4,16,8.7,16z M31.2,13c-0.8-0.8-2-0.8-2.8,0l0,0l-1,1l0,0
	l-3.2,3.2V7.5c0,0,0,0,0-0.1c0,0,0,0,0-0.1s-0.1-0.2-0.1-0.2l-7-7C17,0.1,16.9,0,16.8,0c0,0,0,0-0.1,0c0,0,0,0-0.1,0h-14
	C1.3,0,0.2,1.1,0.2,2.5v27c0,1.4,1.1,2.5,2.5,2.5h19c1.4,0,2.5-1.1,2.5-2.5v-6.6l6-6l0,0l1-1C32,15,32,13.8,31.2,13L31.2,13z
	 M17.2,1.7L22.5,7h-3.8c-0.8,0-1.5-0.7-1.5-1.5V1.7z M16.7,7h-12C4.4,7,4.2,6.8,4.2,6.5v-2C4.2,4.2,4.4,4,4.7,4h11.5v1.5
	C16.2,6,16.4,6.6,16.7,7z M23.2,29.5c0,0.8-0.7,1.5-1.5,1.5h-19c-0.8,0-1.5-0.7-1.5-1.5v-27C1.2,1.7,1.9,1,2.7,1h13.5v2H4.7
	C3.9,3,3.2,3.7,3.2,4.5v2C3.2,7.3,3.9,8,4.7,8h18.5v10.2L17.4,24c0,0,0,0.1-0.1,0.1l0,0l-1.4,2.8c-0.1,0.2-0.1,0.4,0.1,0.5L15.4,28
	c-0.2,0.2-0.2,0.5,0,0.7s0.5,0.2,0.7,0l0,0l0.6-0.6l0,0c0.2,0.2,0.4,0.2,0.6,0.1l2.8-1.4l0,0c0,0,0.1,0,0.1-0.1l2.9-2.9L23.2,29.5z
	 M17.9,25.2l1.1,1.1l-1.9,0.9L17,27.1l0,0l0,0V27L17.9,25.2z M23.3,22.3L23.3,22.3l-3.4,3.4l-1.4-1.4l9.3-9.3l1.4,1.4L23.3,22.3z
	 M30.5,15.1l-0.6,0.6l-1.4-1.4l0.6-0.6c0.4-0.4,1-0.4,1.4,0S30.9,14.7,30.5,15.1z M8.7,11h12c0.3,0,0.5-0.2,0.5-0.5S21,10,20.7,10
	h-12c-0.3,0-0.5,0.2-0.5,0.5S8.4,11,8.7,11z M13.7,27.9c-0.4,0-0.8-0.1-1.1-0.3c-1-0.6-2.2-0.6-3.2,0c-0.3,0.2-0.7,0.3-1.1,0.3
	c-0.4,0-0.8-0.1-1.1-0.3c-0.5-0.3-1-0.5-1.6-0.5c-0.3,0-0.5,0.2-0.5,0.5s0.2,0.5,0.5,0.5c0.4,0,0.8,0.1,1.1,0.3
	c0.5,0.3,1,0.5,1.6,0.5s1.1-0.2,1.6-0.5c0.7-0.4,1.5-0.4,2.2,0c0.5,0.3,1,0.5,1.6,0.5c0.3,0,0.5-0.2,0.5-0.5S14,27.9,13.7,27.9
	L13.7,27.9z M8.7,18h12c0.3,0,0.5-0.2,0.5-0.5S21,17,20.7,17h-12c-0.3,0-0.5,0.2-0.5,0.5S8.4,18,8.7,18z M4.7,18
	c0.8,0,1.5-0.7,1.5-1.5c0-0.8-0.7-1.5-1.5-1.5s-1.5,0.7-1.5,1.5C3.2,17.3,3.9,18,4.7,18L4.7,18z M4.7,16c0.3,0,0.5,0.2,0.5,0.5
	S5,17,4.7,17s-0.5-0.2-0.5-0.5S4.4,16,4.7,16L4.7,16z M6.2,21.5c0-0.8-0.7-1.5-1.5-1.5s-1.5,0.7-1.5,1.5S3.9,23,4.7,23
	S6.2,22.3,6.2,21.5L6.2,21.5z M4.7,22c-0.3,0-0.5-0.2-0.5-0.5S4.4,21,4.7,21s0.5,0.2,0.5,0.5S5,22,4.7,22z M4.7,13
	c0.8,0,1.5-0.7,1.5-1.5S5.5,10,4.7,10s-1.5,0.7-1.5,1.5S3.9,13,4.7,13L4.7,13z M4.7,11c0.3,0,0.5,0.2,0.5,0.5S5,12,4.7,12
	s-0.5-0.2-0.5-0.5S4.4,11,4.7,11L4.7,11z M8.7,21h8c0.3,0,0.5-0.2,0.5-0.5S17,20,16.7,20h-8c-0.3,0-0.5,0.2-0.5,0.5S8.4,21,8.7,21z
	 M8.7,23h8c0.3,0,0.5-0.2,0.5-0.5S17,22,16.7,22h-8c-0.3,0-0.5,0.2-0.5,0.5S8.4,23,8.7,23z"/>
</svg>
