<?xml version="1.0" encoding="utf-8"?>
<!-- Generator: Adobe Illustrator 27.9.0, SVG Export Plug-In . SVG Version: 6.00 Build 0)  -->
<svg version="1.1" id="school" xmlns="http://www.w3.org/2000/svg" xmlns:xlink="http://www.w3.org/1999/xlink" x="0px" y="0px"
	 viewBox="0 0 24 24" style="enable-background:new 0 0 24 24;" xml:space="preserve">
<style type="text/css">
	.st0{fill:#8B8891;}
	.st1{fill:none;}
</style>
<rect x="5.2" y="6.8" class="st0" width="13.6" height="9.9"/>
<path class="st1" d="M0,0h24v24H0V0z"/>
<rect x="7.4" y="5.5" class="st0" width="9" height="2.6"/>
<rect x="11.2" y="4.8" class="st0" width="1.8" height="1.3"/>
<rect x="7.7" y="15.1" class="st0" width="8.4" height="3.6"/>
<path d="M12,3L1,9l4,2.2v6l7,3.8l7-3.8v-6l2-1.1V17h2V9L12,3z M17,16l-5,2.7L7,16v-3.7l5,2.7l5-2.7C17,12.3,17,16,17,16z M12,12.7
	L5.2,9L12,5.3L18.8,9C18.8,9,12,12.7,12,12.7z"/>
<rect x="13.7" y="6.9" class="st0" width="0" height="0.9"/>
</svg>
